<?xml version="1.0" encoding="UTF-8" standalone="no"?>
<!DOCTYPE svg PUBLIC "-//W3C//DTD SVG 1.1//EN" "http://www.w3.org/Graphics/SVG/1.1/DTD/svg11.dtd">
<svg width="100%" height="100%" viewBox="0 0 1822 520" version="1.1" xmlns="http://www.w3.org/2000/svg" xmlns:xlink="http://www.w3.org/1999/xlink" xml:space="preserve" xmlns:serif="http://www.serif.com/" style="fill-rule:evenodd;clip-rule:evenodd;stroke-linejoin:round;stroke-miterlimit:2;">
    <g id="Regions-Logo" serif:id="Regions Logo" transform="matrix(1.066667,0,0,1.066667,8.226728,11.597053)">
        <g transform="matrix(1,0,0,1,-0.000067,-0.000018)">
            <g id="Background-Shape" serif:id="Background Shape">
                <g id="Background-Oval" serif:id="Background Oval" transform="matrix(0.979869,0,0,0.979868,0.22596,0.15859)">
                    <path id="Oval" d="M435.073,75.974C509.832,166.112 485.246,311.497 380.142,400.704C275.051,489.918 129.245,489.16 54.482,399.023C-20.283,308.886 4.309,163.503 109.403,74.295C214.498,-14.914 360.307,-14.16 435.073,75.974Z" style="fill:url(#_Linear1);fill-rule:nonzero;"/>
                </g>
            </g>
            <g id="Text">
                <g id="Astropy" transform="matrix(3,0,0,3,-787.08588,-1411.5908)">
                    <g id="astropy" transform="matrix(1.026304,0,0,0.97437,0,0)">
                        <g transform="matrix(1,0,0,1,424.5867,521.01251)">
                            <path d="M2.167,-5.5C2.167,-7.694 3.125,-9.389 5.042,-10.583C6.958,-11.778 10.014,-12.611 14.208,-13.083C14.208,-13.611 14.139,-14.118 14,-14.604C13.861,-15.09 13.646,-15.521 13.354,-15.896C13.063,-16.271 12.688,-16.563 12.229,-16.771C11.771,-16.979 11.194,-17.083 10.5,-17.083C9.472,-17.083 8.479,-16.889 7.521,-16.5C6.563,-16.111 5.639,-15.639 4.75,-15.083L3,-18.292C4.139,-19.014 5.41,-19.639 6.813,-20.167C8.215,-20.694 9.736,-20.958 11.375,-20.958C13.958,-20.958 15.875,-20.201 17.125,-18.688C18.375,-17.174 19,-14.986 19,-12.125L19,0L15.083,0L14.708,-2.25L14.583,-2.25C13.667,-1.472 12.688,-0.819 11.646,-0.292C10.604,0.236 9.472,0.5 8.25,0.5C6.444,0.5 4.979,-0.049 3.854,-1.146C2.729,-2.243 2.167,-3.694 2.167,-5.5ZM6.833,-5.875C6.833,-4.958 7.104,-4.292 7.646,-3.875C8.188,-3.458 8.889,-3.25 9.75,-3.25C10.583,-3.25 11.347,-3.444 12.042,-3.833C12.736,-4.222 13.458,-4.778 14.208,-5.5L14.208,-10.083C12.819,-9.917 11.653,-9.694 10.708,-9.417C9.764,-9.139 9.007,-8.826 8.438,-8.479C7.868,-8.132 7.458,-7.736 7.208,-7.292C6.958,-6.847 6.833,-6.375 6.833,-5.875Z" style="fill:rgb(236,94,42);fill-rule:nonzero;"/>
                            <path d="M25.042,-5.417C25.958,-4.694 26.868,-4.132 27.771,-3.729C28.674,-3.326 29.653,-3.125 30.708,-3.125C31.819,-3.125 32.639,-3.354 33.167,-3.813C33.694,-4.271 33.958,-4.861 33.958,-5.583C33.958,-6 33.833,-6.368 33.583,-6.688C33.333,-7.007 33,-7.292 32.583,-7.542C32.167,-7.792 31.694,-8.021 31.167,-8.229C30.639,-8.438 30.111,-8.653 29.583,-8.875C28.917,-9.125 28.236,-9.417 27.542,-9.75C26.847,-10.083 26.229,-10.486 25.688,-10.958C25.146,-11.431 24.701,-11.979 24.354,-12.604C24.007,-13.229 23.833,-13.972 23.833,-14.833C23.833,-16.639 24.5,-18.111 25.833,-19.25C27.167,-20.389 28.986,-20.958 31.292,-20.958C32.708,-20.958 33.986,-20.708 35.125,-20.208C36.264,-19.708 37.25,-19.139 38.083,-18.5L35.875,-15.583C35.153,-16.111 34.424,-16.535 33.688,-16.854C32.951,-17.174 32.181,-17.333 31.375,-17.333C30.347,-17.333 29.59,-17.118 29.104,-16.688C28.618,-16.257 28.375,-15.722 28.375,-15.083C28.375,-14.694 28.493,-14.354 28.729,-14.063C28.965,-13.771 29.278,-13.507 29.667,-13.271C30.056,-13.035 30.507,-12.819 31.021,-12.625C31.535,-12.431 32.069,-12.236 32.625,-12.042C33.319,-11.792 34.014,-11.507 34.708,-11.188C35.403,-10.868 36.035,-10.472 36.604,-10C37.174,-9.528 37.632,-8.951 37.979,-8.271C38.326,-7.59 38.5,-6.778 38.5,-5.833C38.5,-4.944 38.326,-4.118 37.979,-3.354C37.632,-2.59 37.125,-1.924 36.458,-1.354C35.792,-0.785 34.958,-0.333 33.958,0C32.958,0.333 31.819,0.5 30.542,0.5C29.125,0.5 27.729,0.229 26.354,-0.313C24.979,-0.854 23.792,-1.528 22.792,-2.333L25.042,-5.417Z" style="fill:rgb(236,94,42);fill-rule:nonzero;"/>
                            <path d="M43.5,-16.667L40.583,-16.667L40.583,-20.25L43.75,-20.458L44.333,-26.042L48.333,-26.042L48.333,-20.458L53.542,-20.458L53.542,-16.667L48.333,-16.667L48.333,-6.917C48.333,-4.528 49.292,-3.333 51.208,-3.333C51.569,-3.333 51.938,-3.375 52.313,-3.458C52.688,-3.542 53.028,-3.653 53.333,-3.792L54.167,-0.25C53.611,-0.056 52.979,0.118 52.271,0.271C51.563,0.424 50.806,0.5 50,0.5C48.806,0.5 47.799,0.319 46.979,-0.042C46.16,-0.403 45.493,-0.91 44.979,-1.563C44.465,-2.215 44.09,-2.993 43.854,-3.896C43.618,-4.799 43.5,-5.806 43.5,-6.917L43.5,-16.667Z" style="fill:rgb(236,94,42);fill-rule:nonzero;"/>
                            <path d="M57.833,-20.458L61.792,-20.458L62.125,-16.833L62.292,-16.833C63.014,-18.167 63.889,-19.188 64.917,-19.896C65.944,-20.604 67,-20.958 68.083,-20.958C69.056,-20.958 69.833,-20.819 70.417,-20.542L69.583,-16.375C69.222,-16.486 68.889,-16.569 68.583,-16.625C68.278,-16.681 67.903,-16.708 67.458,-16.708C66.653,-16.708 65.806,-16.396 64.917,-15.771C64.028,-15.146 63.264,-14.056 62.625,-12.5L62.625,0L57.833,0L57.833,-20.458Z" style="fill:rgb(236,94,42);fill-rule:nonzero;"/>
                            <path d="M71.625,-10.208C71.625,-11.903 71.889,-13.417 72.417,-14.75C72.945,-16.083 73.66,-17.208 74.563,-18.125C75.465,-19.042 76.5,-19.743 77.667,-20.229C78.833,-20.715 80.056,-20.958 81.333,-20.958C82.611,-20.958 83.84,-20.715 85.021,-20.229C86.201,-19.743 87.236,-19.042 88.125,-18.125C89.014,-17.208 89.729,-16.083 90.271,-14.75C90.813,-13.417 91.083,-11.903 91.083,-10.208C91.083,-8.514 90.813,-7 90.271,-5.667C89.729,-4.333 89.014,-3.208 88.125,-2.292C87.236,-1.375 86.201,-0.681 85.021,-0.208C83.84,0.264 82.611,0.5 81.333,0.5C80.056,0.5 78.833,0.264 77.667,-0.208C76.5,-0.681 75.465,-1.375 74.563,-2.292C73.66,-3.208 72.945,-4.333 72.417,-5.667C71.889,-7 71.625,-8.514 71.625,-10.208ZM76.542,-10.208C76.542,-8.153 76.965,-6.507 77.813,-5.271C78.66,-4.035 79.833,-3.417 81.333,-3.417C82.833,-3.417 84.014,-4.035 84.875,-5.271C85.736,-6.507 86.167,-8.153 86.167,-10.208C86.167,-12.292 85.736,-13.951 84.875,-15.188C84.014,-16.424 82.833,-17.042 81.333,-17.042C79.833,-17.042 78.66,-16.424 77.813,-15.188C76.965,-13.951 76.542,-12.292 76.542,-10.208Z" style="fill:rgb(236,94,42);fill-rule:nonzero;"/>
                            <path d="M100.625,1.667L100.625,8.083L95.833,8.083L95.833,-20.458L99.792,-20.458L100.125,-18.292L100.292,-18.292C101.153,-19.014 102.111,-19.639 103.167,-20.167C104.222,-20.694 105.32,-20.958 106.458,-20.958C107.736,-20.958 108.868,-20.715 109.854,-20.229C110.84,-19.743 111.681,-19.042 112.375,-18.125C113.07,-17.208 113.597,-16.111 113.958,-14.833C114.32,-13.556 114.5,-12.125 114.5,-10.542C114.5,-8.792 114.257,-7.229 113.771,-5.854C113.285,-4.479 112.639,-3.326 111.833,-2.396C111.028,-1.465 110.097,-0.75 109.042,-0.25C107.986,0.25 106.889,0.5 105.75,0.5C104.861,0.5 103.972,0.306 103.083,-0.083C102.195,-0.472 101.333,-1.028 100.5,-1.75L100.625,1.667ZM100.625,-5.167C101.375,-4.528 102.097,-4.083 102.792,-3.833C103.486,-3.583 104.139,-3.458 104.75,-3.458C106.111,-3.458 107.25,-4.049 108.167,-5.229C109.083,-6.41 109.542,-8.167 109.542,-10.5C109.542,-12.556 109.195,-14.153 108.5,-15.292C107.806,-16.431 106.681,-17 105.125,-17C103.681,-17 102.181,-16.236 100.625,-14.708L100.625,-5.167Z" style="fill:rgb(236,94,42);fill-rule:nonzero;"/>
                            <path d="M118.667,4.25C118.861,4.306 119.09,4.368 119.354,4.438C119.618,4.507 119.875,4.542 120.125,4.542C121.208,4.542 122.076,4.215 122.729,3.563C123.382,2.91 123.875,2.069 124.208,1.042L124.583,-0.25L116.542,-20.458L121.417,-20.458L124.958,-10.417C125.264,-9.528 125.563,-8.59 125.854,-7.604C126.146,-6.618 126.445,-5.639 126.75,-4.667L126.917,-4.667C127.167,-5.611 127.424,-6.576 127.688,-7.563C127.951,-8.549 128.208,-9.5 128.458,-10.417L131.542,-20.458L136.167,-20.458L128.75,0.917C128.333,2.083 127.875,3.125 127.375,4.042C126.875,4.958 126.299,5.743 125.646,6.396C124.993,7.049 124.243,7.549 123.396,7.896C122.549,8.243 121.57,8.417 120.458,8.417C119.903,8.417 119.417,8.382 119,8.313C118.583,8.243 118.181,8.139 117.792,8L118.667,4.25Z" style="fill:rgb(236,94,42);fill-rule:nonzero;"/>
                        </g>
                    </g>
                </g>
                <g transform="matrix(1,0,0,1,-13.097784,-29.319397)">
                    <g transform="matrix(1,0,0,1,512.57275,385.19653)">
                        <path d="M27.375,-184.125L63,-184.125L66,-151.5L67.5,-151.5C74,-163.5 81.875,-172.688 91.125,-179.062C100.375,-185.438 109.875,-188.625 119.625,-188.625C128.375,-188.625 135.375,-187.375 140.625,-184.875L133.125,-147.375C129.875,-148.375 126.875,-149.125 124.125,-149.625C121.375,-150.125 118,-150.375 114,-150.375C106.75,-150.375 99.125,-147.562 91.125,-141.938C83.125,-136.312 76.25,-126.5 70.5,-112.5L70.5,0L27.375,0L27.375,-184.125Z" style="fill:white;"/>
                        <path d="M151.5,-91.875C151.5,-106.875 153.875,-120.375 158.625,-132.375C163.375,-144.375 169.688,-154.5 177.562,-162.75C185.438,-171 194.5,-177.375 204.75,-181.875C215,-186.375 225.5,-188.625 236.25,-188.625C248.75,-188.625 259.75,-186.5 269.25,-182.25C278.75,-178 286.688,-172 293.062,-164.25C299.438,-156.5 304.25,-147.25 307.5,-136.5C310.75,-125.75 312.375,-114 312.375,-101.25C312.375,-92.75 311.75,-86 310.5,-81L193.5,-81C195.5,-64.25 201.312,-51.375 210.938,-42.375C220.562,-33.375 232.875,-28.875 247.875,-28.875C255.875,-28.875 263.312,-30.062 270.188,-32.438C277.062,-34.812 283.875,-38.125 290.625,-42.375L305.25,-15.375C296.5,-9.625 286.75,-4.875 276,-1.125C265.25,2.625 254,4.5 242.25,4.5C229.5,4.5 217.625,2.313 206.625,-2.062C195.625,-6.438 186,-12.75 177.75,-21C169.5,-29.25 163.062,-39.312 158.438,-51.188C153.812,-63.062 151.5,-76.625 151.5,-91.875ZM274.875,-108.375C274.875,-123.125 271.812,-134.625 265.688,-142.875C259.562,-151.125 250.125,-155.25 237.375,-155.25C226.375,-155.25 216.75,-151.312 208.5,-143.438C200.25,-135.562 195.125,-123.875 193.125,-108.375L274.875,-108.375Z" style="fill:white;"/>
                        <path d="M373.5,27C373.5,35.25 377.688,41.688 386.062,46.312C394.438,50.938 406,53.25 420.75,53.25C435.75,53.25 447.812,50.313 456.938,44.438C466.062,38.562 470.625,31.625 470.625,23.625C470.625,16.375 467.812,11.5 462.188,9C456.562,6.5 448.5,5.25 438,5.25L412.875,5.25C402.875,5.25 394.5,4.375 387.75,2.625C378.25,9.875 373.5,18 373.5,27ZM337.5,33.375C337.5,25.625 339.75,18.438 344.25,11.812C348.75,5.188 355.25,-0.75 363.75,-6L363.75,-7.5C359,-10.5 355.062,-14.5 351.938,-19.5C348.812,-24.5 347.25,-30.75 347.25,-38.25C347.25,-45.5 349.312,-52.062 353.438,-57.938C357.562,-63.812 362.25,-68.625 367.5,-72.375L367.5,-73.875C361.25,-78.625 355.688,-85.188 350.812,-93.562C345.938,-101.938 343.5,-111.625 343.5,-122.625C343.5,-133.125 345.5,-142.5 349.5,-150.75C353.5,-159 358.812,-165.938 365.438,-171.562C372.062,-177.188 379.75,-181.438 388.5,-184.312C397.25,-187.188 406.5,-188.625 416.25,-188.625C421.25,-188.625 426.062,-188.188 430.688,-187.312C435.312,-186.438 439.5,-185.375 443.25,-184.125L509.25,-184.125L509.25,-152.25L475.5,-152.25C478.5,-148.75 481,-144.312 483,-138.938C485,-133.562 486,-127.625 486,-121.125C486,-110.875 484.188,-101.875 480.562,-94.125C476.938,-86.375 472,-79.875 465.75,-74.625C459.5,-69.375 452.125,-65.375 443.625,-62.625C435.125,-59.875 426,-58.5 416.25,-58.5C412.25,-58.5 408.125,-58.875 403.875,-59.625C399.625,-60.375 395.375,-61.625 391.125,-63.375C388.375,-60.875 386.188,-58.375 384.562,-55.875C382.938,-53.375 382.125,-50 382.125,-45.75C382.125,-40.5 384.312,-36.375 388.688,-33.375C393.062,-30.375 400.875,-28.875 412.125,-28.875L444.75,-28.875C467,-28.875 483.812,-25.312 495.188,-18.188C506.562,-11.062 512.25,0.5 512.25,16.5C512.25,25.5 509.938,34 505.312,42C500.688,50 494.125,56.875 485.625,62.625C477.125,68.375 466.812,72.938 454.688,76.312C442.562,79.688 429,81.375 414,81.375C403,81.375 392.812,80.375 383.438,78.375C374.062,76.375 366,73.375 359.25,69.375C352.5,65.375 347.188,60.375 343.312,54.375C339.438,48.375 337.5,41.375 337.5,33.375ZM416.25,-85.5C425,-85.5 432.5,-88.688 438.75,-95.062C445,-101.438 448.125,-110.625 448.125,-122.625C448.125,-134.125 445.062,-143.062 438.938,-149.438C432.812,-155.812 425.25,-159 416.25,-159C407.25,-159 399.625,-155.875 393.375,-149.625C387.125,-143.375 384,-134.375 384,-122.625C384,-110.625 387.125,-101.438 393.375,-95.062C399.625,-88.688 407.25,-85.5 416.25,-85.5Z" style="fill:white;"/>
                        <path d="M566.625,-216.375C558.875,-216.375 552.5,-218.625 547.5,-223.125C542.5,-227.625 540,-233.5 540,-240.75C540,-248 542.5,-253.938 547.5,-258.562C552.5,-263.188 558.875,-265.5 566.625,-265.5C574.375,-265.5 580.75,-263.188 585.75,-258.562C590.75,-253.938 593.25,-248 593.25,-240.75C593.25,-233.5 590.75,-227.625 585.75,-223.125C580.75,-218.625 574.375,-216.375 566.625,-216.375ZM544.875,-184.125L588,-184.125L588,0L544.875,0L544.875,-184.125Z" style="fill:white;"/>
                        <path d="M631.125,-91.875C631.125,-107.125 633.5,-120.75 638.25,-132.75C643,-144.75 649.438,-154.875 657.562,-163.125C665.688,-171.375 675,-177.688 685.5,-182.062C696,-186.438 707,-188.625 718.5,-188.625C730,-188.625 741.062,-186.438 751.688,-182.062C762.312,-177.688 771.625,-171.375 779.625,-163.125C787.625,-154.875 794.062,-144.75 798.938,-132.75C803.812,-120.75 806.25,-107.125 806.25,-91.875C806.25,-76.625 803.812,-63 798.938,-51C794.062,-39 787.625,-28.875 779.625,-20.625C771.625,-12.375 762.312,-6.125 751.688,-1.875C741.062,2.375 730,4.5 718.5,4.5C707,4.5 696,2.375 685.5,-1.875C675,-6.125 665.688,-12.375 657.562,-20.625C649.438,-28.875 643,-39 638.25,-51C633.5,-63 631.125,-76.625 631.125,-91.875ZM675.375,-91.875C675.375,-73.375 679.188,-58.562 686.812,-47.438C694.438,-36.312 705,-30.75 718.5,-30.75C732,-30.75 742.625,-36.312 750.375,-47.438C758.125,-58.562 762,-73.375 762,-91.875C762,-110.625 758.125,-125.562 750.375,-136.688C742.625,-147.813 732,-153.375 718.5,-153.375C705,-153.375 694.438,-147.813 686.812,-136.688C679.188,-125.562 675.375,-110.625 675.375,-91.875Z" style="fill:white;"/>
                        <path d="M849,-184.125L884.625,-184.125L887.625,-159.375L889.125,-159.375C897.375,-167.375 906.312,-174.25 915.938,-180C925.562,-185.75 936.75,-188.625 949.5,-188.625C969.25,-188.625 983.625,-182.312 992.625,-169.688C1001.625,-157.062 1006.125,-139 1006.125,-115.5L1006.125,0L963,0L963,-109.875C963,-125.125 960.75,-135.875 956.25,-142.125C951.75,-148.375 944.375,-151.5 934.125,-151.5C926.125,-151.5 919.062,-149.563 912.938,-145.688C906.812,-141.813 899.875,-136.125 892.125,-128.625L892.125,0L849,0L849,-184.125Z" style="fill:white;"/>
                        <path d="M1060.875,-48.75C1069.125,-42.25 1077.312,-37.188 1085.438,-33.562C1093.562,-29.937 1102.375,-28.125 1111.875,-28.125C1121.875,-28.125 1129.25,-30.188 1134,-34.312C1138.75,-38.438 1141.125,-43.75 1141.125,-50.25C1141.125,-54 1140,-57.313 1137.75,-60.188C1135.5,-63.063 1132.5,-65.625 1128.75,-67.875C1125,-70.125 1120.75,-72.188 1116,-74.062C1111.25,-75.938 1106.5,-77.875 1101.75,-79.875C1095.75,-82.125 1089.625,-84.75 1083.375,-87.75C1077.125,-90.75 1071.562,-94.375 1066.688,-98.625C1061.812,-102.875 1057.812,-107.813 1054.688,-113.438C1051.562,-119.062 1050,-125.75 1050,-133.5C1050,-149.75 1056,-163 1068,-173.25C1080,-183.5 1096.375,-188.625 1117.125,-188.625C1129.875,-188.625 1141.375,-186.375 1151.625,-181.875C1161.875,-177.375 1170.75,-172.25 1178.25,-166.5L1158.375,-140.25C1151.875,-145 1145.312,-148.812 1138.688,-151.688C1132.062,-154.563 1125.125,-156 1117.875,-156C1108.625,-156 1101.812,-154.063 1097.438,-150.188C1093.062,-146.313 1090.875,-141.5 1090.875,-135.75C1090.875,-132.25 1091.938,-129.188 1094.062,-126.563C1096.188,-123.938 1099,-121.562 1102.5,-119.438C1106,-117.312 1110.062,-115.375 1114.688,-113.625C1119.312,-111.875 1124.125,-110.125 1129.125,-108.375C1135.375,-106.125 1141.625,-103.562 1147.875,-100.688C1154.125,-97.812 1159.812,-94.25 1164.938,-90C1170.062,-85.75 1174.188,-80.562 1177.312,-74.438C1180.438,-68.312 1182,-61 1182,-52.5C1182,-44.5 1180.438,-37.062 1177.312,-30.188C1174.188,-23.312 1169.625,-17.312 1163.625,-12.188C1157.625,-7.062 1150.125,-3 1141.125,0C1132.125,3 1121.875,4.5 1110.375,4.5C1097.625,4.5 1085.062,2.062 1072.688,-2.812C1060.312,-7.688 1049.625,-13.75 1040.625,-21L1060.875,-48.75Z" style="fill:white;"/>
                    </g>
                </g>
            </g>
            <g id="Shapes">
                <g id="Circle" transform="matrix(0.9,0,0,0.9,14.671832,31.960789)">
                    <circle cx="127.968" cy="244.608" r="98.438" style="fill:rgb(103,164,221);fill-opacity:0.95;"/>
                </g>
                <g id="Rectangle" transform="matrix(0.83615,-0.333816,0.316751,0.793406,39.969728,37.511596)">
                    <rect x="231.829" y="204.934" width="71.974" height="221.566" style="fill:rgb(250,129,117);fill-opacity:0.95;"/>
                </g>
                <g id="Ellipse" transform="matrix(0.81002,-0.392637,0.664765,0.607242,16.763552,22.176604)">
                    <ellipse cx="119.316" cy="184.117" rx="113.089" ry="40.53" style="fill:rgb(254,180,100);fill-opacity:0.95;"/>
                </g>
                <g id="Hexagon" transform="matrix(0,-1.144068,1.377551,0,-289.109817,946.990616)">
                    <path d="M532,364L583.095,388.5L583.095,437.5L532,462L480.905,437.5L480.905,388.5L532,364Z" style="fill:rgb(232,209,79);"/>
                </g>
            </g>
            <g id="Large-Stars" serif:id="Large Stars" transform="matrix(1,0,0,1,0,9.375005)">
                <g id="Star" transform="matrix(0.070474,0,0,0.075,137.716888,190.690272)">
                    <path d="M414.454,613.132C409.273,594.8 391.289,578.609 372.806,573.997C297.246,555.142 -38.907,500 -38.907,500C-38.907,500 297.246,444.858 372.806,426.003C391.289,421.391 409.273,405.2 414.454,386.868C434.521,315.868 493.203,0 493.203,0C493.203,0 551.886,315.868 571.953,386.868C577.134,405.2 595.118,421.391 613.601,426.003C689.161,444.858 1025.314,500 1025.314,500C1025.314,500 689.161,555.142 613.601,573.997C595.118,578.609 577.134,594.8 571.953,613.132C551.886,684.132 493.203,1000 493.203,1000C493.203,1000 434.521,684.132 414.454,613.132Z" style="fill:white;"/>
                </g>
                <g id="Star1" serif:id="Star" transform="matrix(0.061665,0,0,0.065625,230.186644,302.252776)">
                    <path d="M414.454,613.132C409.273,594.8 391.289,578.609 372.806,573.997C297.246,555.142 -38.907,500 -38.907,500C-38.907,500 297.246,444.858 372.806,426.003C391.289,421.391 409.273,405.2 414.454,386.868C434.521,315.868 493.203,0 493.203,0C493.203,0 551.886,315.868 571.953,386.868C577.134,405.2 595.118,421.391 613.601,426.003C689.161,444.858 1025.314,500 1025.314,500C1025.314,500 689.161,555.142 613.601,573.997C595.118,578.609 577.134,594.8 571.953,613.132C551.886,684.132 493.203,1000 493.203,1000C493.203,1000 434.521,684.132 414.454,613.132Z" style="fill:white;"/>
                </g>
                <g id="Star2" serif:id="Star" transform="matrix(0.048451,0,0,0.051563,141.078782,364.59653)">
                    <path d="M414.454,613.132C409.273,594.8 391.289,578.609 372.806,573.997C297.246,555.142 -38.907,500 -38.907,500C-38.907,500 297.246,444.858 372.806,426.003C391.289,421.391 409.273,405.2 414.454,386.868C434.521,315.868 493.203,0 493.203,0C493.203,0 551.886,315.868 571.953,386.868C577.134,405.2 595.118,421.391 613.601,426.003C689.161,444.858 1025.314,500 1025.314,500C1025.314,500 689.161,555.142 613.601,573.997C595.118,578.609 577.134,594.8 571.953,613.132C551.886,684.132 493.203,1000 493.203,1000C493.203,1000 434.521,684.132 414.454,613.132Z" style="fill:white;"/>
                </g>
                <g id="Star3" serif:id="Star" transform="matrix(0.048451,0,0,0.051563,268.578789,186.471519)">
                    <path d="M414.454,613.132C409.273,594.8 391.289,578.609 372.806,573.997C297.246,555.142 -38.907,500 -38.907,500C-38.907,500 297.246,444.858 372.806,426.003C391.289,421.391 409.273,405.2 414.454,386.868C434.521,315.868 493.203,0 493.203,0C493.203,0 551.886,315.868 571.953,386.868C577.134,405.2 595.118,421.391 613.601,426.003C689.161,444.858 1025.314,500 1025.314,500C1025.314,500 689.161,555.142 613.601,573.997C595.118,578.609 577.134,594.8 571.953,613.132C551.886,684.132 493.203,1000 493.203,1000C493.203,1000 434.521,684.132 414.454,613.132Z" style="fill:white;"/>
                </g>
                <g id="Star4" serif:id="Star" transform="matrix(0.048451,0,0,0.051563,369.828795,223.971521)">
                    <path d="M414.454,613.132C409.273,594.8 391.289,578.609 372.806,573.997C297.246,555.142 -38.907,500 -38.907,500C-38.907,500 297.246,444.858 372.806,426.003C391.289,421.391 409.273,405.2 414.454,386.868C434.521,315.868 493.203,0 493.203,0C493.203,0 551.886,315.868 571.953,386.868C577.134,405.2 595.118,421.391 613.601,426.003C689.161,444.858 1025.314,500 1025.314,500C1025.314,500 689.161,555.142 613.601,573.997C595.118,578.609 577.134,594.8 571.953,613.132C551.886,684.132 493.203,1000 493.203,1000C493.203,1000 434.521,684.132 414.454,613.132Z" style="fill:white;"/>
                </g>
                <g id="Star5" serif:id="Star" transform="matrix(0.044046,0,0,0.046875,326.063671,117.565265)">
                    <path d="M414.454,613.132C409.273,594.8 391.289,578.609 372.806,573.997C297.246,555.142 -38.907,500 -38.907,500C-38.907,500 297.246,444.858 372.806,426.003C391.289,421.391 409.273,405.2 414.454,386.868C434.521,315.868 493.203,0 493.203,0C493.203,0 551.886,315.868 571.953,386.868C577.134,405.2 595.118,421.391 613.601,426.003C689.161,444.858 1025.314,500 1025.314,500C1025.314,500 689.161,555.142 613.601,573.997C595.118,578.609 577.134,594.8 571.953,613.132C551.886,684.132 493.203,1000 493.203,1000C493.203,1000 434.521,684.132 414.454,613.132Z" style="fill:white;"/>
                </g>
                <g id="Star6" serif:id="Star" transform="matrix(0.052856,0,0,0.05625,241.093908,29.44026)">
                    <path d="M414.454,613.132C409.273,594.8 391.289,578.609 372.806,573.997C297.246,555.142 -38.907,500 -38.907,500C-38.907,500 297.246,444.858 372.806,426.003C391.289,421.391 409.273,405.2 414.454,386.868C434.521,315.868 493.203,0 493.203,0C493.203,0 551.886,315.868 571.953,386.868C577.134,405.2 595.118,421.391 613.601,426.003C689.161,444.858 1025.314,500 1025.314,500C1025.314,500 689.161,555.142 613.601,573.997C595.118,578.609 577.134,594.8 571.953,613.132C551.886,684.132 493.203,1000 493.203,1000C493.203,1000 434.521,684.132 414.454,613.132Z" style="fill:white;"/>
                </g>
                <g id="Star7" serif:id="Star" transform="matrix(0.061665,0,0,0.065625,169.249146,66.002762)">
                    <path d="M414.454,613.132C409.273,594.8 391.289,578.609 372.806,573.997C297.246,555.142 -38.907,500 -38.907,500C-38.907,500 297.246,444.858 372.806,426.003C391.289,421.391 409.273,405.2 414.454,386.868C434.521,315.868 493.203,0 493.203,0C493.203,0 551.886,315.868 571.953,386.868C577.134,405.2 595.118,421.391 613.601,426.003C689.161,444.858 1025.314,500 1025.314,500C1025.314,500 689.161,555.142 613.601,573.997C595.118,578.609 577.134,594.8 571.953,613.132C551.886,684.132 493.203,1000 493.203,1000C493.203,1000 434.521,684.132 414.454,613.132Z" style="fill:white;"/>
                </g>
                <g id="Star8" serif:id="Star" transform="matrix(0.048451,0,0,0.051563,72.641277,180.846517)">
                    <path d="M414.454,613.132C409.273,594.8 391.289,578.609 372.806,573.997C297.246,555.142 -38.907,500 -38.907,500C-38.907,500 297.246,444.858 372.806,426.003C391.289,421.391 409.273,405.2 414.454,386.868C434.521,315.868 493.203,0 493.203,0C493.203,0 551.886,315.868 571.953,386.868C577.134,405.2 595.118,421.391 613.601,426.003C689.161,444.858 1025.314,500 1025.314,500C1025.314,500 689.161,555.142 613.601,573.997C595.118,578.609 577.134,594.8 571.953,613.132C551.886,684.132 493.203,1000 493.203,1000C493.203,1000 434.521,684.132 414.454,613.132Z" style="fill:white;"/>
                </g>
                <g id="Star9" serif:id="Star" transform="matrix(0.044046,0,0,0.046875,88.876156,261.940273)">
                    <path d="M414.454,613.132C409.273,594.8 391.289,578.609 372.806,573.997C297.246,555.142 -38.907,500 -38.907,500C-38.907,500 297.246,444.858 372.806,426.003C391.289,421.391 409.273,405.2 414.454,386.868C434.521,315.868 493.203,0 493.203,0C493.203,0 551.886,315.868 571.953,386.868C577.134,405.2 595.118,421.391 613.601,426.003C689.161,444.858 1025.314,500 1025.314,500C1025.314,500 689.161,555.142 613.601,573.997C595.118,578.609 577.134,594.8 571.953,613.132C551.886,684.132 493.203,1000 493.203,1000C493.203,1000 434.521,684.132 414.454,613.132Z" style="fill:white;"/>
                </g>
            </g>
        </g>
    </g>
    <defs>
        <linearGradient id="_Linear1" x1="0" y1="0" x2="1" y2="0" gradientUnits="userSpaceOnUse" gradientTransform="matrix(233.55095,-404.522121,404.522121,233.55095,128.00041,439.76157)"><stop offset="0" style="stop-color:rgb(22,57,99);stop-opacity:1"/><stop offset="1" style="stop-color:rgb(15,34,59);stop-opacity:1"/></linearGradient>
    </defs>
</svg>
